<?xml version="1.0" encoding="utf-8"?>
<!-- Generator: Adobe Illustrator 22.0.0, SVG Export Plug-In . SVG Version: 6.00 Build 0)  -->
<svg version="1.1" id="Capa_1" xmlns="http://www.w3.org/2000/svg" xmlns:xlink="http://www.w3.org/1999/xlink" x="0px" y="0px"
	 viewBox="0 0 1080 1080" style="enable-background:new 0 0 1080 1080;" xml:space="preserve">
<g>
	<path d="M531.4,115.5c-28.1,0-56.3,0.1-84.4-0.1c-10.8-0.1-19.7,2.9-23.5,13.9c-3.7,10.8-0.6,19.3,7.7,27.8
		c6,6.1,11.8,15.5,12,23.6c1.1,41.7,0.3,83.5,0.4,125.2c0,13.4-6,22.5-18.4,27c-14.4,5.2-28.7-4.6-29.2-20.9c-0.8-30-0.9-60-0.4-90
		c0.3-16.9-2.7-32-11.6-46.8C356.4,129,384.8,70.5,438.8,66c42.4-3.5,85.2-1.3,127.9-1.4c16.9,0,33.8,1,50.6,1
		c56.1,0.2,92.5,63.6,62.9,109.9c-6.9,10.7-10.3,25.5-10.4,38.5c-0.9,68.9-0.1,137.9-0.5,206.8c-0.1,13.5,5.5,21.3,16.8,28
		c89.1,52.5,137.4,131.5,149.9,233.3c20.1,164.1-120.6,365.6-356.4,329.7C372.9,995.5,292,936,251.6,831c-8.1-21.2-12.4-43.2-7-66.1
		c8.3-34.6,33.6-57.9,69.1-63.2c31.5-4.7,58.6,9.6,76.2,41.3c14.1,25.4,26.6,51.7,41.3,76.8c7,11.9,16.1,23.5,26.7,32.1
		c29.4,23.7,69.4,22,99.9-2.5c30-24.1,38.9-61,22.7-95.9c-10.5-22.5-21.2-44.9-31.9-67.3c-9-18.9-5.7-35.2,9.7-49.6
		c11.6-10.9,22.7-22.4,34.1-33.5c25.1-24.6,38.9-52.8,33.4-89.4c-11.8-79.3-4.5-159.2-6.1-238.8c-0.6-31.4,0-62.8-0.4-94.3
		c-0.1-9.6,1.7-17,10.5-22.7c9.3-6,14.2-15.3,10.3-26.7c-4.1-11.9-13.5-15.8-25.5-15.7C586.8,115.6,559.1,115.5,531.4,115.5z"/>
	<path d="M433.5,652.3c0.4,42.3,34.2,84.7,75.6,95.3c7.2,1.8,14.5,4.2,21,7.8c18.3,10,26,28.6,20.8,47.5
		c-5.4,19.5-23.2,33.2-42.4,32.8c-22.3-0.5-37.1-12.7-41.7-34.4c-0.6-2.7-1.4-5.6-1.2-8.3c2.7-35.9-17-61.3-40.3-84.6
		c-15.8-15.7-36.4-20-57.9-21.8c-40-3.3-66.4-35.7-61.1-74.1c5.8-42,47.1-66.7,86.7-51.8c5.2,2,10.4,4.4,15.1,7.4
		c14.2,8.9,28.2,8.8,42.2-0.3c4.3-2.8,8.7-5.6,13.4-7.8c17-8,25.9-19.9,27.6-40c2.5-30,32.7-49.7,61.1-43
		c30.4,7.2,48.9,37.1,40.3,65c-9.1,29.6-41.4,46-69.6,33.1c-19.3-8.8-33.7-3.3-51.2,5.5C441,596.1,433.1,621.4,433.5,652.3z"/>
	<path d="M400,495.1c-19.7,0.3-36.2-16.3-36.4-36.8c-0.2-20.4,15-36.4,34.6-36.5c20-0.1,37.6,15.7,37.8,33.9
		C436.3,476.4,419.5,494.8,400,495.1z"/>
</g>
</svg>
