<?xml version="1.0" encoding="utf-8"?>
<!-- Generator: Adobe Illustrator 22.0.0, SVG Export Plug-In . SVG Version: 6.00 Build 0)  -->
<svg version="1.1" id="Capa_1" xmlns="http://www.w3.org/2000/svg" xmlns:xlink="http://www.w3.org/1999/xlink" x="0px" y="0px"
	 viewBox="0 0 519 519" style="enable-background:new 0 0 519 519;" xml:space="preserve">
<style type="text/css">
	.st0{fill:#FFFFFF;stroke:#160B0B;stroke-width:3;stroke-miterlimit:10;}
</style>
<g transform="translate(0.000000,519.000000) scale(0.100000,-0.100000)">
	<path class="st0" d="M2128,4656c-76-16-162-76-203-141c-72-113-73-195-4-331l44-89l5-278l5-279l28-24c32-28,75-31,117-9
		c59,31,61,43,58,396l-3,321l-43,36c-39,34-42,41-42,85c0,37,5,53,25,72l24,25h422h421l29-31c46-49,41-92-18-146l-46-43l-4-614
		c-4-582-3-623,17-802c34-286,20-326-195-544c-162-165-171-184-136-288c13-37,58-136,100-221l76-155v-85c0-104-23-159-101-237
		c-128-130-300-149-446-51c-82,55-114,102-250,366c-88,172-117,212-175,249c-115,73-251,69-376-12c-67-42-117-113-143-201
		c-31-108-3-255,84-434c150-310,509-570,907-657c122-26,369-24,503,4c276,60,506,179,681,353c189,189,322,430,382,694
		c31,139,32,366,1,510c-43,200-113,363-224,520c-75,107-232,266-311,315c-134,83-152,96-164,120c-10,20-13,136-11,535l3,510l43,85
		c25,51,45,107,48,137c14,114-66,251-181,311c-46,23-64,26-230,33C2567,4673,2194,4670,2128,4656z"/>
	<path class="st0" d="M1925,3096c-41-18-83-69-91-111c-11-62,4-106,52-152c41-40,49-43,97-43c84,0,150,59,163,147
		C2162,3047,2030,3142,1925,3096z"/>
	<path class="st0" d="M2510,2851c-79-42-115-97-129-196c-6-39-17-75-28-87c-30-33-185-120-224-125c-28-4-54,4-115,33
		c-72,35-86,39-159,39c-64,0-89-5-125-23c-126-66-178-203-134-352c12-39,29-66,67-104c58-57,98-73,215-87c110-12,181-49,257-132
		c95-104,125-166,136-284c11-125,34-174,94-203c91-44,161-35,228,28c78,75,81,185,7,261c-36,37-63,49-175,80c-64,17-125,64-182,139
		c-81,106-103,165-103,270c0,84,15,165,38,209c7,11,42,41,79,65c135,89,161,95,258,59c101-38,180-24,249,45c54,54,70,90,71,159
		c0,96-62,183-154,214C2630,2876,2550,2872,2510,2851z"/>
</g>
</svg>
